<svg xmlns="http://www.w3.org/2000/svg" viewBox="0 0 133 55.381001">
  <path fill="#999" d="M77.388106 1.0977601c4.820602 0 8.65083 1.4199292 11.490689 4.2597874 2.75633 2.7563325 4.175035 6.8502975 4.256103 12.2818935l.0037.497466v2.128504l.06735 17.431065-.01034.691609c-.01898 2.64048.22328 5.136852 1.514065 6.754497.39435.216937.807861.407707 1.240946.573565 1.12162.429558 2.231315.644334 3.32908.644334.155006 0 .30707-.0038.456193-.01143.486078-.06801.977158-.148828 1.460658-.222524.68676-.182281 1.28844-.474644 1.80598-.875737.89094-.690476 1.69876-1.807113 2.42336-3.349917l.15403-.33713.14316-.357966L89.041854 2.4023448h11.526466l10.81059 26.1314672 10.8821-26.1314672H133L115.60289 43.281982l-.19084.470559c-1.73162 4.189839-3.85161 7.159213-6.35991 8.908135-2.60124 1.813689-5.7394 2.720534-9.414513 2.720534-5.291861 0-8.676387-.94198-11.613192-3.470687l-.258004-.227261c-2.916355-2.626776-4.65436-5.188014-5.378384-10.473444l-.05801-.446817-.378721-21.320066.01482.0011c-.05481-2.848782-.685903-4.99078-1.893305-6.425995-1.26481-1.503457-3.066568-2.25518-5.405277-2.25518-2.625077 0-4.701276.847185-6.228597 2.541554-1.463677 1.623769-2.226012 4.003676-2.286997 7.139726l-.004.413342V40.1876H54.979482V19.855167c0-6.061543-2.434165-9.092315-7.30249-9.092315-2.577355 0-4.629684.847185-6.157005 2.541554-1.463684 1.623769-2.226012 4.003676-2.286998 7.139726l-.004.413342V40.1876H28.060492V1.6705047h10.667364v4.4387701c1.431865-1.6227763 3.185893-2.8637229 5.262092-3.7228394 2.0762-.859117 4.355243-1.2886752 6.837136-1.2886752 2.72054 0 5.178563.536948 7.374087 1.6108442 2.19552 1.0738956 3.961481 2.6370105 5.297884 4.689345 1.575048-2.0046052 3.567723-3.5557883 5.978024-4.6535489 2.410296-1.0977602 5.047311-1.6466403 7.911028-1.6466403zM25.296213 0L9.5457417 44.960441H0L15.750476 0z"/>
</svg>